<svg xmlns="http://www.w3.org/2000/svg" version="1.1" xmlns:xlink="http://www.w3.org/1999/xlink" xmlns:svgjs="http://svgjs.dev/svgjs" width="1000" height="1000" viewBox="0 0 1000 1000"><rect width="1000" height="1000" fill="#111111"></rect><g transform="matrix(0.7,0,0,0.7,149.57575852656186,389.4091862587001)"><svg viewBox="0 0 396 125" data-background-color="#111111" preserveAspectRatio="xMidYMid meet" height="315" width="1000" xmlns="http://www.w3.org/2000/svg" xmlns:xlink="http://www.w3.org/1999/xlink"><g id="tight-bounds" transform="matrix(1,0,0,1,0.23999946211642964,0.19320506876408672)"><svg viewBox="0 0 395.52 124.61358986247183" height="124.61358986247183" width="395.52"><g><svg viewBox="0 0 614.6976917041379 193.66830006934566" height="124.61358986247183" width="395.52"><g transform="matrix(1,0,0,1,219.1776917041379,57.1417667548813)"><svg viewBox="0 0 395.52 79.38476655958306" height="79.38476655958306" width="395.52"><g id="textblocktransform"><svg viewBox="0 0 395.52 79.38476655958306" height="79.38476655958306" width="395.52" id="textblock"><g><svg viewBox="0 0 395.52 54.02792243767313" height="54.02792243767313" width="395.52"><g transform="matrix(1,0,0,1,0,0)"><svg width="395.52" viewBox="4 -38.599998474121094 288.7799987792969 39.44999694824219" height="54.02792243767313" data-palette-color="#ffa458"><path d="M13-7.2L29.3-7.2 29.3 0 4 0 4-37.9 29.05-37.9 29.05-30.7 13-30.7 13-22.65 26.55-22.65 26.55-15.45 13-15.45 13-7.2ZM62.5-37.9L71.75-37.9 58.5 0.45 47.1 0.45 33.8-37.9 43.05-37.9 52.8-8.85 62.5-37.9ZM86.25-7.2L102.55-7.2 102.55 0 77.25 0 77.25-37.9 102.3-37.9 102.3-30.7 86.25-30.7 86.25-22.65 99.8-22.65 99.8-15.45 86.25-15.45 86.25-7.2ZM133.49-37.9L142.49-37.9 142.49 0 132.14 0 118.54-23.3 118.54 0 109.54 0 109.54-37.9 119.89-37.9 133.49-14.6 133.49-37.9ZM178.19-37.9L178.19-30.2 167.84-30.2 167.84 0 158.84 0 158.84-30.2 148.49-30.2 148.49-37.9 178.19-37.9ZM209.24-30.2L193.19-30.2 193.19-21.9 206.74-21.9 206.74-14.2 193.19-14.2 193.19 0 184.19 0 184.19-37.9 209.24-37.9 209.24-30.2ZM232.49 0.85Q226.19 0.85 221.79-1.73 217.39-4.3 215.19-8.78 212.99-13.25 212.99-18.9L212.99-18.9Q212.99-24.45 215.19-28.9 217.39-33.35 221.79-35.98 226.19-38.6 232.49-38.6L232.49-38.6Q238.69-38.6 243.09-35.98 247.49-33.35 249.71-28.88 251.94-24.4 251.94-18.9L251.94-18.9Q251.94-13.25 249.71-8.78 247.49-4.3 243.11-1.73 238.74 0.85 232.49 0.85L232.49 0.85ZM232.49-6.75Q237.34-6.75 240.04-10.15 242.74-13.55 242.74-19.05L242.74-19.05Q242.74-22.5 241.54-25.2 240.34-27.9 238.01-29.45 235.69-31 232.49-31L232.49-31Q227.54-31 224.86-27.65 222.19-24.3 222.19-18.9L222.19-18.9Q222.19-13.4 224.84-10.08 227.49-6.75 232.49-6.75L232.49-6.75ZM292.78 0L282.38 0 273.98-12.7 265.58 0 255.18 0 268.83-19.55 256.08-37.9 266.43-37.9 274.03-26.45 281.58-37.9 291.93-37.9 279.18-19.55 292.78 0Z" opacity="1" transform="matrix(1,0,0,1,0,0)" fill="#ffa458" class="undefined-text-0" data-fill-palette-color="primary" id="text-0"></path></svg></g></svg></g><g transform="matrix(1,0,0,1,0,66.78261825506925)"><svg viewBox="0 0 232.209792 12.60214830451381" height="12.60214830451381" width="232.209792"><g transform="matrix(1,0,0,1,0,0)"><svg width="232.209792" viewBox="3.9000000953674316 -35.5 667.8699951171875 36.25" height="12.60214830451381" data-palette-color="#ba3b0a"><path d="M22.6 0L22.6-17.9 6.7-17.9 6.7 0 3.9 0 3.9-35 6.7-35 6.7-20.65 22.6-20.65 22.6-35 25.4-35 25.4 0 22.6 0ZM47.1 0L47.3-2.55Q46.1-1.05 44.27-0.25 42.45 0.55 40.6 0.55L40.6 0.55Q31.2 0.55 31.2-8.6L31.2-8.6 31.2-25.05 34-25.05 34-8.25Q34-5.05 35.77-3.5 37.55-1.95 40.6-1.95L40.6-1.95Q43.6-1.95 45.32-3.48 47.05-5 47.05-8.25L47.05-8.25 47.05-25.05 49.85-25.05 49.85 0 47.1 0ZM70.65 0L70.65-17.15Q70.65-20.2 68.87-21.58 67.09-22.95 64.3-22.95L64.3-22.95Q62.6-22.95 60.85-22.48 59.1-22 57.75-21.25L57.75-21.25 57.75 0 54.95 0 54.95-25.05 57.75-25.05 57.55-23.35Q58.75-24.4 60.6-24.93 62.45-25.45 64.45-25.45L64.45-25.45Q67.2-25.45 69.15-24.55L69.15-24.55Q71.15-23.65 72.27-21.85 73.4-20.05 73.4-17.3L73.4-17.3 73.4 0 70.65 0ZM84.24 0.65Q81.44-0.15 80.19-1.9 78.94-3.65 78.94-6.6L78.94-6.6 78.94-35 81.74-35 81.74-25.05 87.74-25.05 86.54-22.4 81.74-22.4 81.74-6.6Q81.74-2.6 85.04-1.5L85.04-1.5 84.24 0.65ZM106.69-17.3Q106.69-22.55 110.94-24.5L110.94-24.5Q112.99-25.45 115.84-25.45L115.84-25.45Q117.69-25.45 119.41-25 121.14-24.55 122.34-23.7L122.34-23.7 122.34-35 125.14-35 125.14 0 122.39 0.25Q119.14 0.6 117.29 0.6L117.29 0.6Q115.44 0.6 113.81 0.25 112.19-0.1 110.59-0.9L110.59-0.9Q108.79-1.8 107.74-3.55 106.69-5.3 106.69-7.85L106.69-7.85 106.69-17.3ZM122.34-21.25Q120.99-22 119.24-22.48 117.49-22.95 115.79-22.95L115.79-22.95Q112.99-22.95 111.21-21.58 109.44-20.2 109.44-17.15L109.44-17.15 109.44-7.8Q109.44-1.95 117.49-1.95L117.49-1.95Q119.39-1.95 122.34-2.4L122.34-2.4 122.34-21.25ZM149.34-9.2Q149.34-5 147.04-2.25 144.74 0.5 140.09 0.5L140.09 0.5Q135.44 0.5 133.06-2.27 130.69-5.05 130.69-9.2L130.69-9.2 130.69-15.8Q130.69-20.55 133.11-23.08 135.54-25.6 140.09-25.6L140.09-25.6Q144.44-25.6 146.89-22.98 149.34-20.35 149.34-15.8L149.34-15.8 149.34-9.2ZM146.54-15.8Q146.54-19.55 144.81-21.3 143.09-23.05 140.09-23.05L140.09-23.05Q136.99-23.05 135.24-21.3 133.49-19.55 133.49-15.8L133.49-15.8 133.49-8.7Q133.49-5.7 135.26-3.85 137.04-2 140.09-2L140.09-2Q143.19-2 144.86-3.83 146.54-5.65 146.54-8.7L146.54-8.7 146.54-15.8ZM171.93 0L166.88-20.25 161.78 0 157.93 0 150.28-25.05 153.23-25.05 159.88-2.9 165.53-25.05 168.38-25.05 173.88-2.9 180.58-25.05 183.53-25.05 175.78 0 171.93 0ZM203.48 0L203.48-17.15Q203.48-20.2 201.71-21.58 199.93-22.95 197.13-22.95L197.13-22.95Q195.43-22.95 193.68-22.48 191.93-22 190.58-21.25L190.58-21.25 190.58 0 187.78 0 187.78-25.05 190.58-25.05 190.38-23.35Q191.58-24.4 193.43-24.93 195.28-25.45 197.28-25.45L197.28-25.45Q200.03-25.45 201.98-24.55L201.98-24.55Q203.98-23.65 205.11-21.85 206.23-20.05 206.23-17.3L206.23-17.3 206.23 0 203.48 0ZM230.98 0.65Q228.18-0.15 226.93-1.9 225.68-3.65 225.68-6.6L225.68-6.6 225.68-35 228.48-35 228.48-25.05 234.48-25.05 233.28-22.4 228.48-22.4 228.48-6.6Q228.48-2.6 231.78-1.5L231.78-1.5 230.98 0.65ZM254.52 0L254.52-17.15Q254.52-20.2 252.75-21.58 250.97-22.95 248.17-22.95L248.17-22.95Q246.47-22.95 244.72-22.48 242.97-22 241.62-21.25L241.62-21.25 241.62 0 238.82 0 238.82-35 241.62-35 241.62-23.7Q242.87-24.55 244.62-25.03 246.37-25.5 248.27-25.5L248.27-25.5Q250.87-25.5 253.02-24.55L253.02-24.55Q255.02-23.65 256.15-21.85 257.27-20.05 257.27-17.3L257.27-17.3 257.27 0 254.52 0ZM278.77-1.75Q276.97-0.6 274.67 0 272.37 0.6 270.07 0.6L270.07 0.6Q266.37 0.6 264.2-1.23 262.02-3.05 262.02-6.7L262.02-6.7 262.02-16.95Q262.02-21 264.55-23.25 267.07-25.5 271.22-25.5L271.22-25.5Q275.37-25.5 277.7-23.28 280.02-21.05 280.02-17.1L280.02-17.1 280.02-10.6 264.82-9.75 264.82-6.7Q264.82-4.3 266.37-3.1 267.92-1.9 270.42-1.9L270.42-1.9Q273.92-1.9 277.67-3.9L277.67-3.9 278.77-1.75ZM277.22-17.45Q277.22-20.55 275.27-21.83 273.32-23.1 271.17-23.1L271.17-23.1Q268.42-23.1 266.62-21.6 264.82-20.1 264.82-16.9L264.82-16.9 264.82-12.5 277.22-13.1 277.22-17.45ZM318.22-7.85Q318.22-5.3 317.17-3.55 316.12-1.8 314.31-0.9L314.31-0.9Q312.72-0.1 311.09 0.25 309.47 0.6 307.62 0.6L307.62 0.6Q305.76 0.6 302.51 0.25L302.51 0.25 299.76 0 299.76-35 302.56-35 302.56-23.7Q303.76-24.55 305.49-25 307.22-25.45 309.06-25.45L309.06-25.45Q311.92-25.45 313.97-24.5L313.97-24.5Q318.22-22.55 318.22-17.3L318.22-17.3 318.22-7.85ZM315.47-17.15Q315.47-20.2 313.69-21.58 311.92-22.95 309.12-22.95L309.12-22.95Q307.42-22.95 305.67-22.48 303.92-22 302.56-21.25L302.56-21.25 302.56-2.4Q305.51-1.95 307.42-1.95L307.42-1.95Q315.47-1.95 315.47-7.8L315.47-7.8 315.47-17.15ZM338.36-1.75Q336.56-0.6 334.26 0 331.96 0.6 329.66 0.6L329.66 0.6Q325.96 0.6 323.79-1.23 321.61-3.05 321.61-6.7L321.61-6.7 321.61-16.95Q321.61-21 324.14-23.25 326.66-25.5 330.81-25.5L330.81-25.5Q334.96-25.5 337.29-23.28 339.61-21.05 339.61-17.1L339.61-17.1 339.61-10.6 324.41-9.75 324.41-6.7Q324.41-4.3 325.96-3.1 327.51-1.9 330.01-1.9L330.01-1.9Q333.51-1.9 337.26-3.9L337.26-3.9 338.36-1.75ZM336.81-17.45Q336.81-20.55 334.86-21.83 332.91-23.1 330.76-23.1L330.76-23.1Q328.01-23.1 326.21-21.6 324.41-20.1 324.41-16.9L324.41-16.9 324.41-12.5 336.81-13.1 336.81-17.45ZM346.01-6.35Q346.31-4.1 348.26-2.98 350.21-1.85 352.61-1.85L352.61-1.85Q354.86-1.85 356.71-2.88 358.56-3.9 358.56-6.2L358.56-6.2Q358.56-7.7 357.69-8.68 356.81-9.65 355.51-10.25 354.21-10.85 352.01-11.55L352.01-11.55Q349.56-12.35 348.01-13.05 346.46-13.75 345.31-15.03 344.16-16.3 343.96-18.25L343.96-18.25 343.91-18.85Q343.91-20.5 344.83-22.08 345.76-23.65 347.69-24.65 349.61-25.65 352.51-25.65L352.51-25.65Q354.11-25.65 355.33-25.33 356.56-25 357.26-24.65 357.96-24.3 358.11-24.2L358.11-24.2 357.16-21.9Q357.01-22 356.44-22.3 355.86-22.6 354.81-22.9 353.76-23.2 352.51-23.2L352.51-23.2Q350.11-23.2 348.41-22.08 346.71-20.95 346.71-18.95L346.71-18.95Q346.71-17.05 348.26-16.05 349.81-15.05 353.01-14.05L353.01-14.05Q355.71-13.15 357.36-12.35 359.01-11.55 360.19-10.08 361.36-8.6 361.36-6.25L361.36-6.25Q361.36-3.25 359.13-1.25 356.91 0.75 352.61 0.75L352.61 0.75Q349.76 0.75 347.69-0.23 345.61-1.2 344.54-2.8 343.46-4.4 343.36-6.35L343.36-6.35 346.01-6.35ZM370.61 0.65Q367.81-0.15 366.56-1.9 365.31-3.65 365.31-6.6L365.31-6.6 365.31-35 368.11-35 368.11-25.05 374.11-25.05 372.91-22.4 368.11-22.4 368.11-6.6Q368.11-2.6 371.41-1.5L371.41-1.5 370.61 0.65ZM407.65-1.75Q405.85-0.6 403.55 0 401.25 0.6 398.95 0.6L398.95 0.6Q395.25 0.6 393.08-1.23 390.9-3.05 390.9-6.7L390.9-6.7 390.9-16.95Q390.9-21 393.43-23.25 395.95-25.5 400.1-25.5L400.1-25.5Q404.25-25.5 406.58-23.28 408.9-21.05 408.9-17.1L408.9-17.1 408.9-10.6 393.7-9.75 393.7-6.7Q393.7-4.3 395.25-3.1 396.8-1.9 399.3-1.9L399.3-1.9Q402.8-1.9 406.55-3.9L406.55-3.9 407.65-1.75ZM406.1-17.45Q406.1-20.55 404.15-21.83 402.2-23.1 400.05-23.1L400.05-23.1Q397.3-23.1 395.5-21.6 393.7-20.1 393.7-16.9L393.7-16.9 393.7-12.5 406.1-13.1 406.1-17.45ZM417.6 0L409.95-25.05 412.9-25.05 419.55-2.9 426.25-25.05 429.2-25.05 421.45 0 417.6 0ZM447.05-1.75Q445.25-0.6 442.95 0 440.65 0.6 438.35 0.6L438.35 0.6Q434.65 0.6 432.47-1.23 430.3-3.05 430.3-6.7L430.3-6.7 430.3-16.95Q430.3-21 432.82-23.25 435.35-25.5 439.5-25.5L439.5-25.5Q443.65-25.5 445.97-23.28 448.3-21.05 448.3-17.1L448.3-17.1 448.3-10.6 433.1-9.75 433.1-6.7Q433.1-4.3 434.65-3.1 436.2-1.9 438.7-1.9L438.7-1.9Q442.2-1.9 445.95-3.9L445.95-3.9 447.05-1.75ZM445.5-17.45Q445.5-20.55 443.55-21.83 441.6-23.1 439.45-23.1L439.45-23.1Q436.7-23.1 434.9-21.6 433.1-20.1 433.1-16.9L433.1-16.9 433.1-12.5 445.5-13.1 445.5-17.45ZM469.14 0L469.14-17.15Q469.14-20.2 467.37-21.58 465.59-22.95 462.79-22.95L462.79-22.95Q461.09-22.95 459.34-22.48 457.59-22 456.24-21.25L456.24-21.25 456.24 0 453.44 0 453.44-25.05 456.24-25.05 456.04-23.35Q457.24-24.4 459.09-24.93 460.94-25.45 462.94-25.45L462.94-25.45Q465.69-25.45 467.64-24.55L467.64-24.55Q469.64-23.65 470.77-21.85 471.89-20.05 471.89-17.3L471.89-17.3 471.89 0 469.14 0ZM482.74 0.65Q479.94-0.15 478.69-1.9 477.44-3.65 477.44-6.6L477.44-6.6 477.44-35 480.24-35 480.24-25.05 486.24-25.05 485.04-22.4 480.24-22.4 480.24-6.6Q480.24-2.6 483.54-1.5L483.54-1.5 482.74 0.65ZM491.84-6.35Q492.14-4.1 494.09-2.98 496.04-1.85 498.44-1.85L498.44-1.85Q500.69-1.85 502.54-2.88 504.39-3.9 504.39-6.2L504.39-6.2Q504.39-7.7 503.51-8.68 502.64-9.65 501.34-10.25 500.04-10.85 497.84-11.55L497.84-11.55Q495.39-12.35 493.84-13.05 492.29-13.75 491.14-15.03 489.99-16.3 489.79-18.25L489.79-18.25 489.74-18.85Q489.74-20.5 490.66-22.08 491.59-23.65 493.51-24.65 495.44-25.65 498.34-25.65L498.34-25.65Q499.94-25.65 501.16-25.33 502.39-25 503.09-24.65 503.79-24.3 503.94-24.2L503.94-24.2 502.99-21.9Q502.84-22 502.26-22.3 501.69-22.6 500.64-22.9 499.59-23.2 498.34-23.2L498.34-23.2Q495.94-23.2 494.24-22.08 492.54-20.95 492.54-18.95L492.54-18.95Q492.54-17.05 494.09-16.05 495.64-15.05 498.84-14.05L498.84-14.05Q501.54-13.15 503.19-12.35 504.84-11.55 506.01-10.08 507.19-8.6 507.19-6.25L507.19-6.25Q507.19-3.25 504.96-1.25 502.74 0.75 498.44 0.75L498.44 0.75Q495.59 0.75 493.51-0.23 491.44-1.2 490.36-2.8 489.29-4.4 489.19-6.35L489.19-6.35 491.84-6.35ZM528.43-32.15Q527.78-32.15 527.26-32.68 526.73-33.2 526.73-33.85L526.73-33.85Q526.73-34.5 527.23-35 527.73-35.5 528.43-35.5L528.43-35.5Q529.13-35.5 529.61-35.02 530.08-34.55 530.08-33.85L530.08-33.85Q530.08-33.15 529.58-32.65 529.08-32.15 528.43-32.15L528.43-32.15ZM526.98 0L526.98-25.05 529.78-25.05 529.78 0 526.98 0ZM552.98 0L552.98-17.15Q552.98-20.2 551.21-21.58 549.43-22.95 546.63-22.95L546.63-22.95Q544.93-22.95 543.18-22.48 541.43-22 540.08-21.25L540.08-21.25 540.08 0 537.28 0 537.28-25.05 540.08-25.05 539.88-23.35Q541.08-24.4 542.93-24.93 544.78-25.45 546.78-25.45L546.78-25.45Q549.53-25.45 551.48-24.55L551.48-24.55Q553.48-23.65 554.61-21.85 555.73-20.05 555.73-17.3L555.73-17.3 555.73 0 552.98 0ZM580.48 0.65Q577.68-0.15 576.43-1.9 575.18-3.65 575.18-6.6L575.18-6.6 575.18-35 577.98-35 577.98-25.05 583.98-25.05 582.78-22.4 577.98-22.4 577.98-6.6Q577.98-2.6 581.28-1.5L581.28-1.5 580.48 0.65ZM607.67-9.2Q607.67-5 605.37-2.25 603.07 0.5 598.42 0.5L598.42 0.5Q593.77 0.5 591.4-2.27 589.02-5.05 589.02-9.2L589.02-9.2 589.02-15.8Q589.02-20.55 591.45-23.08 593.87-25.6 598.42-25.6L598.42-25.6Q602.77-25.6 605.22-22.98 607.67-20.35 607.67-15.8L607.67-15.8 607.67-9.2ZM604.87-15.8Q604.87-19.55 603.15-21.3 601.42-23.05 598.42-23.05L598.42-23.05Q595.32-23.05 593.57-21.3 591.82-19.55 591.82-15.8L591.82-15.8 591.82-8.7Q591.82-5.7 593.6-3.85 595.37-2 598.42-2L598.42-2Q601.52-2 603.2-3.83 604.87-5.65 604.87-8.7L604.87-8.7 604.87-15.8ZM630.27 0L625.22-20.25 620.12 0 616.27 0 608.62-25.05 611.57-25.05 618.22-2.9 623.87-25.05 626.72-25.05 632.22-2.9 638.92-25.05 641.87-25.05 634.12 0 630.27 0ZM661.82 0L661.82-17.15Q661.82-20.2 660.04-21.58 658.27-22.95 655.47-22.95L655.47-22.95Q653.77-22.95 652.02-22.48 650.27-22 648.92-21.25L648.92-21.25 648.92 0 646.12 0 646.12-25.05 648.92-25.05 648.72-23.35Q649.92-24.4 651.77-24.93 653.62-25.45 655.62-25.45L655.62-25.45Q658.37-25.45 660.32-24.55L660.32-24.55Q662.32-23.65 663.44-21.85 664.57-20.05 664.57-17.3L664.57-17.3 664.57 0 661.82 0ZM670.12 0Q669.47 0 668.97-0.5 668.47-1 668.47-1.65L668.47-1.65Q668.47-2.35 668.97-2.83 669.47-3.3 670.12-3.3L670.12-3.3Q670.82-3.3 671.29-2.83 671.77-2.35 671.77-1.65L671.77-1.65Q671.77-1 671.29-0.5 670.82 0 670.12 0L670.12 0Z" opacity="1" transform="matrix(1,0,0,1,0,0)" fill="#ba3b0a" class="undefined-text-1" data-fill-palette-color="secondary" id="text-1"></path></svg></g></svg></g></svg></g></svg></g><g><svg viewBox="0 0 193.66830006934566 193.66830006934566" height="193.66830006934566" width="193.66830006934566"><g><svg></svg></g><g id="icon-0"><svg viewBox="0 0 193.66830006934566 193.66830006934566" height="193.66830006934566" width="193.66830006934566"><g><path d="M0 96.834c0-53.48 43.354-96.834 96.834-96.834 53.48 0 96.834 43.354 96.834 96.834 0 53.48-43.354 96.834-96.834 96.834-53.48 0-96.834-43.354-96.834-96.834zM96.834 188.796c50.789 0 91.962-41.173 91.962-91.962 0-50.789-41.173-91.962-91.962-91.962-50.789 0-91.962 41.173-91.962 91.962 0 50.789 41.173 91.962 91.962 91.962z" data-fill-palette-color="accent" fill="#ba3b0a" stroke="transparent"></path></g><g transform="matrix(1,0,0,1,57.8084871972128,40.44925149175349)"><svg viewBox="0 0 78.05132567492007 112.76979708583868" height="112.76979708583868" width="78.05132567492007"><g><svg xmlns="http://www.w3.org/2000/svg" xmlns:xlink="http://www.w3.org/1999/xlink" version="1.1" x="0" y="0" viewBox="24.268892288208008 12.956995964050293 50.99750518798828 73.6820068359375" enable-background="new 0 0 100 100" xml:space="preserve" height="112.76979708583868" width="78.05132567492007" class="icon-s-0" data-fill-palette-color="accent" id="s-0"><path d="M37.574 55.57l10 5.166-1.377 2.666-10-5.166L37.574 55.57zM53.338 63.402l10-5.166-1.377-2.666-10 5.166L53.338 63.402zM75.102 44.236c-0.013 0.024-0.018 0.051-0.031 0.075L51.066 85.889c-0.269 0.464-0.763 0.75-1.3 0.75-0.535 0-1.031-0.286-1.299-0.75L24.464 44.312c-0.014-0.024-0.019-0.051-0.031-0.075-0.034-0.067-0.062-0.136-0.085-0.207-0.016-0.048-0.031-0.096-0.043-0.146-0.016-0.072-0.023-0.146-0.028-0.22-0.003-0.05-0.009-0.098-0.008-0.146 0.003-0.078 0.016-0.155 0.03-0.233 0.009-0.045 0.012-0.089 0.025-0.133 0.002-0.011 0.002-0.022 0.006-0.033l8.994-29.105c0.195-0.628 0.775-1.057 1.434-1.057s1.238 0.429 1.434 1.057l8.668 28.049h9.815l8.669-28.049c0.193-0.628 0.775-1.057 1.433-1.057s1.239 0.429 1.433 1.057l8.996 29.105c0.003 0.011 0.002 0.021 0.006 0.032 0.012 0.045 0.016 0.09 0.024 0.135 0.015 0.077 0.028 0.154 0.03 0.232 0.002 0.049-0.004 0.098-0.008 0.146-0.005 0.074-0.013 0.147-0.028 0.22-0.011 0.05-0.026 0.098-0.043 0.146C75.163 44.101 75.135 44.169 75.102 44.236zM57.814 42.062h1.704l3.826-12.253c0.195-0.626 0.775-1.053 1.432-1.053s1.236 0.427 1.432 1.053l3.826 12.253h1.704l-6.962-22.525L57.814 42.062zM27.797 42.062H29.5l3.826-12.253c0.195-0.626 0.775-1.053 1.432-1.053s1.236 0.427 1.432 1.053l3.826 12.253h1.703l-6.961-22.525L27.797 42.062zM71.174 45.062H55.781 43.753 28.361l17.035 29.508h8.74L71.174 45.062z" fill="#ba3b0a" data-fill-palette-color="accent"></path></svg></g></svg></g></svg></g></svg></g></svg></g><defs></defs></svg><rect width="395.52" height="124.61358986247183" fill="none" stroke="none" visibility="hidden"></rect></g></svg></g></svg>